<svg width="512" height="512" x="0" y="0" viewBox="0 0 512.003 512.003" style="enable-background:new 0 0 512 512" xml:space="preserve" class=""><g><path d="m413.862 364.082-84.486-24.849h-146.75L98.14 364.082c-20.469 6.02-34.526 24.806-34.526 46.143V504.5h384.774v-94.275c0-21.336-14.056-40.122-34.526-46.143z" style="" fill="#edebed" data-original="#edebed"></path><path d="M296.082 504.5h-80.161l-16.033-160.323h112.226z" style="" fill="#a5cdff" data-original="#a5cdff"></path><path d="M203.534 380.643c14.067 12.206 32.381 19.647 52.467 19.647s38.4-7.441 52.467-19.647l3.646-36.466H199.888l3.646 36.466z" style="" fill="#8cb4eb" data-original="#8cb4eb"></path><path d="M256.001 376.242c-30.99 0-56.113-25.123-56.113-56.113v-56.113h112.226v56.113c0 30.99-25.122 56.113-56.113 56.113z" style="" fill="#f7d291" data-original="#f7d291"></path><path d="M199.888 305.948c16.842 8.996 35.938 14.181 56.113 14.181s39.271-5.185 56.113-14.181v-41.932H199.888v41.932z" style="" fill="#f0c382" data-original="#f0c382"></path><path d="M372.235 159.806h-12.024V79.645H151.792v80.161h-12.024c-11.068 0-20.04 8.972-20.04 20.04 0 11.067 8.972 20.04 20.04 20.04h12.429c4.106 53.796 48.958 96.194 103.805 96.194s99.699-42.398 103.805-96.194h12.429c11.068 0 20.04-8.973 20.04-20.04-.001-11.067-8.973-20.04-20.041-20.04z" style="" fill="#ffe1a0" data-original="#ffe1a0"></path><path d="M151.792 79.645v80.161h-11.216c-9.127 0-17.651 5.784-20.015 14.599-3.575 13.331 6.519 25.482 19.313 25.482h12.324c4.106 53.796 48.958 96.194 103.805 96.194 5.484 0 10.83-.534 16.083-1.35-49.946-7.709-88.228-50.754-88.228-102.859v-50.377c0-14.49 12.772-25.344 27.161-23.63 7.47.89 15.469 1.381 24.043 1.381 23.929 0 50.567-3.798 79.174-11.287 15.866-4.154 29.129-14.609 37.285-28.313l-199.729-.001z" style="" fill="#f7d291" data-original="#f7d291"></path><path d="m190.87 47.581 1.002 32.065s-24.048 24.048-24.048 56.113v9.895c0 8.085-6.021 14.906-14.044 15.908l-18.021 2.253V95.677c0-26.563 25.051-49.432 55.111-48.096z" style="" fill="#a06e50" data-original="#a06e50"></path><path d="m352.04 384.103-15.878-15.878 16.992-22.656c3.674-4.9 2.015-11.929-3.463-14.668l-37.578-18.789L256.001 504.5h48.097l50.945-101.891a16.031 16.031 0 0 0-3.003-18.506z" style="" fill="#dbd9dc" data-original="#dbd9dc"></path><path d="m321.132 23.532-1.002 56.113s24.048 24.048 24.048 56.113v9.895c0 8.085 6.021 14.906 14.044 15.908l18.021 2.253V71.629c0-26.563-25.05-49.433-55.111-48.097z" style="" fill="#cd916e" data-original="#cd916e"></path><path d="m159.962 384.103 15.878-15.878-16.992-22.656c-3.674-4.9-2.015-11.929 3.463-14.668l37.578-18.789L256.001 504.5h-48.097l-50.945-101.891a16.033 16.033 0 0 1 3.003-18.506z" style="" fill="#dbd9dc" data-original="#dbd9dc"></path><path d="M271.532 7.5c-66.879 0-79.696 20.331-131.195 36.734-3.539 1.127-5.132 5.226-3.132 8.355 11.175 17.48 52.769 63.043 170.937 32.104 13.838-3.623 24.478-14.78 27.284-28.806 3.25-16.25-6.626-32.345-21.475-39.703C302.158 10.34 286.69 7.5 271.532 7.5z" style="" fill="#b67f5f" data-original="#b67f5f"></path><path d="M103.69 456.4h80.16v48.1h-80.16z" style="" fill="#a5cdff" data-original="#a5cdff"></path><path d="M207.905 160.322a7.5 7.5 0 0 0-7.5 7.5v8.017c0 4.143 3.358 7.5 7.5 7.5s7.5-3.357 7.5-7.5v-8.017a7.5 7.5 0 0 0-7.5-7.5zM304.098 160.322a7.499 7.499 0 0 0-7.5 7.5v8.017c0 4.143 3.357 7.5 7.5 7.5s7.5-3.357 7.5-7.5v-8.017a7.5 7.5 0 0 0-7.5-7.5zM285.317 229.274a7.498 7.498 0 0 0 .072-10.605 7.496 7.496 0 0 0-10.605-.072c-2.738 2.7-9.3 5.854-18.782 5.854s-16.043-3.154-18.781-5.854a7.497 7.497 0 0 0-10.606.071 7.5 7.5 0 0 0 .071 10.606c6.459 6.372 17.418 10.177 29.316 10.177 11.897 0 22.856-3.805 29.315-10.177zM215.921 136.274h-16.032c-4.142 0-7.5 3.357-7.5 7.5s3.358 7.5 7.5 7.5h16.032c4.142 0 7.5-3.357 7.5-7.5s-3.358-7.5-7.5-7.5zM296.082 151.274h16.032c4.143 0 7.5-3.357 7.5-7.5s-3.357-7.5-7.5-7.5h-16.032c-4.143 0-7.5 3.357-7.5 7.5s3.358 7.5 7.5 7.5z" fill="#000000" data-original="#000000" class=""></path><path d="m416.63 357.239-54.059-16.62a17.307 17.307 0 0 0-.417-4.917 17.275 17.275 0 0 0-9.108-11.509l-33.432-16.715V283.64c25.013-17.396 42.617-44.741 47.019-76.253h4.458c14.617 0 27.155-10.861 28.543-24.728.778-7.771-1.764-15.529-6.974-21.286a27.534 27.534 0 0 0-8.917-6.533V71.629c0-30.656-24.94-55.597-55.597-55.597l-1.268.001C313.375 6.073 293.538 0 271.532 0c-46.849 0-68.372 9.76-93.292 21.061-13.313 6.037-27.078 12.279-46.59 17.985a7.5 7.5 0 0 0-4.815 10.091c.228.546 3.579 8.325 12.224 17.775-3.733 4.595-10.799 16.346-10.799 39.453v48.809c-8.63 4.115-14.929 12.266-15.89 21.857-.779 7.771 1.762 15.53 6.972 21.289a27.593 27.593 0 0 0 20.426 9.066h5.598c4.398 31.522 22.003 58.87 47.022 76.264v23.827l-33.433 16.715a17.276 17.276 0 0 0-9.108 11.51 17.333 17.333 0 0 0-.417 4.916l-54.059 16.62c-23.481 7.22-39.258 28.575-39.258 53.142v94.12c0 4.143 3.358 7.5 7.5 7.5s7.5-3.357 7.5-7.5v-94.119c0-17.938 11.52-33.532 28.667-38.804l56.231-17.288 9.925 13.234L154.66 378.8a23.502 23.502 0 0 0-4.409 27.164l21.47 42.939h-20.445v-8.532c0-4.143-3.358-7.5-7.5-7.5s-7.5 3.357-7.5 7.5v8.532h-32.581a7.5 7.5 0 0 0-7.5 7.5V504.5a7.5 7.5 0 0 0 7.5 7.5h80.162a7.5 7.5 0 0 0 7.5-7.5v-16.326l9.84 19.681a7.499 7.499 0 0 0 10.062 3.353 7.5 7.5 0 0 0 3.354-10.063l-50.945-101.891a8.522 8.522 0 0 1 1.599-9.849l15.877-15.878a7.5 7.5 0 0 0 .697-9.803l-16.992-22.655a2.286 2.286 0 0 1-.401-1.921 2.285 2.285 0 0 1 1.218-1.54l29.54-14.77 20.854 71.499a7.501 7.501 0 0 0 14.4-4.199l-3.287-11.27a87.866 87.866 0 0 0 28.83 4.873 87.823 87.823 0 0 0 28.828-4.868l-28.829 98.84-16.186-55.494a7.5 7.5 0 1 0-14.4 4.199l23.386 80.18a7.5 7.5 0 0 0 14.4 0l53.597-183.76 29.539 14.77a2.29 2.29 0 0 1 1.219 1.539 2.288 2.288 0 0 1-.401 1.922l-16.992 22.655a7.503 7.503 0 0 0 .696 9.804l15.878 15.878a8.52 8.52 0 0 1 1.599 9.848L297.39 501.146a7.5 7.5 0 0 0 6.703 10.857c2.751 0 5.4-1.52 6.714-4.147l50.945-101.891a23.503 23.503 0 0 0-4.407-27.164l-11.278-11.278 9.924-13.233 56.232 17.289c17.146 5.271 28.666 20.865 28.666 38.804V504.5c0 4.143 3.357 7.5 7.5 7.5s7.5-3.357 7.5-7.5v-94.119c-.001-24.567-15.777-45.923-39.259-53.142zM176.356 497h-65.162v-33.097h25.081v.516c0 4.143 3.358 7.5 7.5 7.5s7.5-3.357 7.5-7.5v-.516h25.081V497zm8.079-462.278C208.734 23.703 227.926 15 271.532 15c27.67 0 52.396 11.58 57.515 26.937a7.5 7.5 0 0 0 14.23-4.744 35.36 35.36 0 0 0-1.529-3.809c15.714 5.606 26.995 20.63 26.995 38.245v80.678h-8.532c-4.705 0-8.532-3.827-8.532-8.532v-8.017c0-34.771-25.174-60.344-26.246-61.416a7.51 7.51 0 0 0-7.562-1.849c-41.634 13.148-100.337 24.229-143.555 2.362-15.379-7.782-24.46-17.671-29.236-24.274 15.921-5.232 28.263-10.829 39.355-15.859zm120.18 276.32-14.324 49.112a72.64 72.64 0 0 1-34.288 8.589c-11.993 0-23.796-2.961-34.287-8.581l-14.327-49.12v-18.607c14.705 7.137 31.199 11.147 48.613 11.147 17.412 0 33.906-4.012 48.613-11.154v18.614zm-48.613-22.461c-53.326 0-96.709-43.384-96.709-96.71 0-4.143-3.358-7.5-7.5-7.5s-7.5 3.357-7.5 7.5v.516h-4.524a12.57 12.57 0 0 1-9.303-4.131c-2.406-2.659-3.532-6.114-3.17-9.729.631-6.292 6.613-11.221 13.619-11.221h10.878c12.976 0 23.532-10.557 23.532-23.532v-28.308c0-4.143-3.358-7.5-7.5-7.5s-7.5 3.357-7.5 7.5v28.308c0 4.705-3.828 8.532-8.532 8.532h-8.532v-45.941c0-17.451 4.69-26.129 6.856-29.206 4.582 3.614 9.956 7.194 16.246 10.472 16.997 8.859 37.227 13.765 60.127 14.581 26.841.965 57.519-3.743 91.24-13.973 5.952 7.208 18.951 25.475 18.951 47.518v8.017c0 12.976 10.557 23.532 23.532 23.532h12.024a12.57 12.57 0 0 1 9.303 4.131c2.406 2.659 3.532 6.113 3.17 9.728-.63 6.293-6.611 11.222-13.617 11.222h-3.384v-.438a7.5 7.5 0 0 0-7.497-7.5h-.003a7.5 7.5 0 0 0-7.5 7.494c-.041 53.286-43.423 96.638-96.707 96.638z" fill="#000000" data-original="#000000" class=""></path><path d="M408.308 452.911h-12.54v-12.54c0-4.143-3.357-7.5-7.5-7.5s-7.5 3.357-7.5 7.5v12.54h-12.541c-4.143 0-7.5 3.357-7.5 7.5s3.357 7.5 7.5 7.5h12.541v12.54c0 4.143 3.357 7.5 7.5 7.5s7.5-3.357 7.5-7.5v-12.54h12.54c4.143 0 7.5-3.357 7.5-7.5s-3.358-7.5-7.5-7.5z" fill="#000000" data-original="#000000" class=""></path></g></svg>