<svg width="512" height="512" x="0" y="0" viewBox="0 0 512 512" style="enable-background:new 0 0 512 512" xml:space="preserve" class=""><g><path d="M241.151 261.296v-56.693H138.487v56.693c0 5.3-3.637 9.914-8.791 11.15L55.488 290.25c-25.34 6.081-43.206 28.741-43.206 54.8v119.207a7.94 7.94 0 0 0 7.94 7.94h339.194a7.94 7.94 0 0 0 7.94-7.94V345.052c0-26.059-17.866-48.72-43.206-54.8l-74.208-17.805a11.47 11.47 0 0 1-8.791-11.151z" style="" fill="#0ed2b3" data-original="#0ed2b3" class=""></path><path d="m324.149 290.251-74.208-17.805a11.47 11.47 0 0 1-8.79-11.15v-56.693h-19.998v70.694c0 5.3 3.634 9.91 8.788 11.146l79.584 19.097c22.187 5.324 37.83 25.165 37.83 47.981v110.736a7.94 7.94 0 0 1-7.94 7.94h20a7.94 7.94 0 0 0 7.94-7.94V345.052c0-26.06-17.866-48.72-43.206-54.801z" style="" fill="#0ab69f" data-original="#0ab69f" class=""></path><path d="m251.889 272.913-55.671 106.295c-2.705 5.158-10.094 5.158-12.8 0l-55.671-106.295 1.948-.467a11.47 11.47 0 0 0 8.791-11.15v-56.693h102.665v56.693c0 5.3 3.632 9.909 8.79 11.15l1.948.467z" style="" fill="#ffcebf" data-original="#ffcebf" class=""></path><path d="M249.942 272.447a11.47 11.47 0 0 1-8.79-11.15v-56.693H138.487v44.479c5.211 4.454 10.377 7.886 14.664 9.736 16.151 6.967 45.461 7.886 65.097 2.764a2.311 2.311 0 0 1 2.906 2.233v11.482c0 5.3 3.634 9.91 8.788 11.146l13.202 3.168 8.746-16.699-1.948-.466z" style="" fill="#ffb09e" data-original="#ffb09e" class=""></path><path d="M206.394 7.5h-34.359c-21.361 0-40.132 11.068-50.905 27.78-1.667 2.586-4.365 4.283-7.393 4.825-19.999 3.581-35.18 21.057-35.18 42.087v65.032H301.08v-45.037c0-52.294-42.392-94.687-94.686-94.687z" style="" fill="#017297" data-original="#017297" class=""></path><path d="M206.394 7.5h-27.996c44.643 15.343 95.574 53.029 87.441 139.723h35.241v-45.037c0-52.293-42.392-94.686-94.686-94.686z" style="" fill="#025f80" data-original="#025f80"></path><path d="M263.198 151.112v33.222c15.027 10.246 38.896-2.488 41.893-23.679 3.274-23.145-25.102-37.216-41.893-9.543zM116.439 151.112v33.222c-15.027 10.246-38.896-2.488-41.893-23.679-3.274-23.145 25.102-37.216 41.893-9.543z" style="" fill="#ffb09e" data-original="#ffb09e" class=""></path><path d="M261.914 97.452c3.158-.829 6.248 1.53 6.248 4.795v78.832c0 21.494-26.403 48.149-41.675 54.74-18.616 8.03-54.721 8.03-73.337 0-15.272-6.591-41.675-33.247-41.675-54.74V86.424c0-8.98 7.28-16.261 16.261-16.261h29.817a9.28 9.28 0 0 1 6.338 2.51c13.037 12.189 29.149 21.118 46.498 25.371 16.864 4.139 34.742 3.816 51.525-.592z" style="" fill="#ffcebf" data-original="#ffcebf" class=""></path><path d="M408.224 326.459a5.68 5.68 0 0 0-1.164 6.34c9.299 20.788 20.58 42.126 3.653 59.053l-23.771 23.771c-16.926 16.926-38.265 5.645-59.053-3.653a5.68 5.68 0 0 0-6.34 1.164l-53.615 53.615c-2.143 2.143-2.1 5.659.135 7.707 45.395 41.587 109.293 38.539 147.948-.116l53.414-53.414c38.663-38.663 42.029-102.256.116-147.949-2.048-2.233-5.563-2.276-7.706-.133l-53.617 53.615z" style="" fill="#62dbfb" data-original="#62dbfb" class=""></path><path d="M469.546 272.976c-2.048-2.233-5.563-2.276-7.706-.133l-6.872 6.872c31.748 44.382 26.013 100.902-9.489 136.403l-53.414 53.414c-21.821 21.821-51.686 32.291-81.726 29.795 37.469 12.087 78.029 2.66 105.677-24.987l53.414-53.414c38.663-38.663 42.029-102.256.116-147.95z" style="" fill="#01d0fb" data-original="#01d0fb" class=""></path><path d="m461.84 272.843-53.616 53.616a5.68 5.68 0 0 0-1.164 6.34c4.079 9.119 8.539 18.343 10.832 27.255l66.744-66.744c-4.129-7.031-9.128-13.826-15.027-20.267-2.072-2.261-5.6-2.369-7.769-.2z" style="" fill="#017297" data-original="#017297" class=""></path><path d="M484.635 293.311c-4.129-7.031-9.128-13.826-15.027-20.267-2.072-2.262-5.599-2.37-7.768-.201l-6.872 6.872c6.489 9.071 11.385 18.653 14.809 28.455l14.858-14.859z" style="" fill="#025f80" data-original="#025f80"></path><path d="m321.549 413.134-53.615 53.615c-2.17 2.17-2.06 5.699.204 7.77 6.435 5.887 13.243 10.874 20.296 14.994l66.711-66.711c-8.912-2.294-18.136-6.753-27.255-10.832a5.682 5.682 0 0 0-6.341 1.164z" style="" fill="#017297" data-original="#017297" class=""></path><path d="M470.22 163.739h-34.878a5.546 5.546 0 0 1-5.547-5.547v-34.878a5.546 5.546 0 0 0-5.547-5.547h-35.372a5.546 5.546 0 0 0-5.547 5.547v34.878a5.546 5.546 0 0 1-5.547 5.547h-34.878a5.546 5.546 0 0 0-5.547 5.547v35.372a5.546 5.546 0 0 0 5.547 5.547h34.878a5.546 5.546 0 0 1 5.547 5.547v34.878a5.546 5.546 0 0 0 5.547 5.547h35.372a5.546 5.546 0 0 0 5.547-5.547v-34.878a5.546 5.546 0 0 1 5.547-5.547h34.878a5.546 5.546 0 0 0 5.547-5.547v-35.372a5.546 5.546 0 0 0-5.547-5.547z" style="" fill="#fe76a8" data-original="#fe76a8" class=""></path><path d="M241.151 226.09v35.208c0 5.3 3.64 9.91 8.79 11.15l74.209 17.802c25.34 6.08 43.21 28.74 43.21 54.8v79.29M138.49 226.09v35.208c0 5.3-3.641 9.91-8.791 11.15L55.491 290.25c-25.34 6.08-43.21 28.74-43.21 54.8v21.29M12.281 401.34v62.92c0 4.38 3.56 7.94 7.94 7.94h246.4" style="stroke-width:15;stroke-linecap:round;stroke-linejoin:round;stroke-miterlimit:10;" fill="none" stroke="#000000" stroke-width="15" stroke-linecap="round" stroke-linejoin="round" stroke-miterlimit="10" data-original="#000000" class=""></path><path d="M241.151 261.298c0 5.3 3.632 9.909 8.79 11.15l1.949.465-55.67 106.295c-2.705 5.158-10.094 5.158-12.8 0l-55.671-106.295 1.95-.465a11.47 11.47 0 0 0 8.791-11.15M69.239 472.198v-80.775M310.401 424.28v-32.86M295.431 69.89c3.66 10.08 5.65 20.96 5.65 32.3v41.53M78.561 143.72V82.19c0-21.03 15.18-38.5 35.18-42.08 3.03-.55 5.72-2.24 7.39-4.83 10.77-16.71 29.54-27.78 50.91-27.78h34.35c28.32 0 53.73 12.43 71.08 32.12" style="stroke-width:15;stroke-linecap:round;stroke-linejoin:round;stroke-miterlimit:10;" fill="none" stroke="#000000" stroke-width="15" stroke-linecap="round" stroke-linejoin="round" stroke-miterlimit="10" data-original="#000000" class=""></path><path d="M268.161 144.44c16.84-18.3 39.9-4.77 36.93 16.22-2.72 19.22-22.59 31.47-37.48 25.95M111.481 144.44c-16.84-18.3-39.9-4.77-36.93 16.22 2.71 19.22 22.59 31.47 37.48 25.95" style="stroke-width:15;stroke-linecap:round;stroke-linejoin:round;stroke-miterlimit:10;" fill="none" stroke="#000000" stroke-width="15" stroke-linecap="round" stroke-linejoin="round" stroke-miterlimit="10" data-original="#000000" class=""></path><path d="M261.915 97.452c3.158-.829 6.248 1.53 6.248 4.795v78.832c0 21.494-26.403 48.149-41.675 54.74-18.616 8.03-54.721 8.03-73.337 0-15.272-6.591-41.675-33.247-41.675-54.74V86.424c0-8.98 7.28-16.261 16.261-16.261h29.817a9.28 9.28 0 0 1 6.338 2.51c13.037 12.189 29.149 21.118 46.498 25.371 16.864 4.139 34.742 3.816 51.525-.592zM408.225 326.459a5.68 5.68 0 0 0-1.164 6.34c9.299 20.788 20.58 42.126 3.653 59.053l-23.771 23.771c-16.926 16.926-38.265 5.645-59.052-3.653a5.68 5.68 0 0 0-6.34 1.164l-53.615 53.615c-2.143 2.143-2.1 5.659.135 7.707 45.395 41.587 109.293 38.539 147.947-.116l53.414-53.414c38.663-38.663 42.029-102.256.116-147.949-2.048-2.233-5.563-2.276-7.706-.133l-53.617 53.615zM417.893 360.055l66.743-66.744M288.434 489.513l66.711-66.711M470.221 163.739h-34.878a5.546 5.546 0 0 1-5.547-5.547v-34.878a5.546 5.546 0 0 0-5.547-5.547h-35.372a5.546 5.546 0 0 0-5.547 5.547v34.878a5.546 5.546 0 0 1-5.547 5.547h-34.878a5.546 5.546 0 0 0-5.547 5.547v35.372a5.546 5.546 0 0 0 5.547 5.547h34.878a5.546 5.546 0 0 1 5.547 5.547v34.878a5.546 5.546 0 0 0 5.547 5.547h35.372a5.546 5.546 0 0 0 5.547-5.547v-34.878a5.546 5.546 0 0 1 5.547-5.547h34.878a5.546 5.546 0 0 0 5.547-5.547v-35.372a5.546 5.546 0 0 0-5.547-5.547zM151.086 143.125v3.936M228.554 143.125v3.936" style="stroke-width:15;stroke-linecap:round;stroke-linejoin:round;stroke-miterlimit:10;" fill="none" stroke="#000000" stroke-width="15" stroke-linecap="round" stroke-linejoin="round" stroke-miterlimit="10" data-original="#000000" class=""></path><path d="M170.805 189.742c12.39 6.155 25.64 6.155 38.029 0M141.249 122.493c6.558-3.958 13.116-3.958 19.674 0M218.717 122.493c6.558-3.958 13.116-3.958 19.674 0" style="stroke-width:15;stroke-linecap:round;stroke-linejoin:round;stroke-miterlimit:10;" fill="none" stroke="#000000" stroke-width="15" stroke-linecap="round" stroke-linejoin="round" stroke-miterlimit="10" data-original="#000000" class=""></path></g></svg>